<svg width="550" height="549" xmlns="http://www.w3.org/2000/svg" xmlns:xlink="http://www.w3.org/1999/xlink" xml:space="preserve" overflow="hidden"><defs><clipPath id="clip0"><rect x="268" y="788" width="550" height="549"/></clipPath></defs><g clip-path="url(#clip0)" transform="translate(-268 -788)"><path d="M268 1062.5C268 910.898 391.122 788 543 788 694.878 788 818 910.898 818 1062.5 818 1214.1 694.878 1337 543 1337 391.122 1337 268 1214.1 268 1062.5Z" fill="#FFFFFF" fill-rule="evenodd"/><g><g><g><path d="M155.152 331.544C155.122 242.282 155.145 153.018 155.221 63.7529 155.223 60.28 155.258 56.8131 155.326 53.3526 155.489 45.3716 160.134 40.0522 167.358 37.2695 188.673 29.0713 209.881 20.8884 230.98 12.7206 231.284 12.6022 231.46 12.2857 231.401 11.9672 231.068 10.1877 230.451 7.84414 229.078 6.68186 227.054 4.96295 222.587 5.8716 220.174 6.79922 197.617 15.497 175.059 24.1949 152.504 32.8927 144.958 35.8043 140.498 40.62 140.578 49.1539 140.634 55.0942 140.476 61.4019 140.476 66.9522 140.471 158.282 140.499 249.612 140.563 340.942 140.566 344.085 140.426 350.377 144.818 351.025 148.366 351.55 151.211 350.331 155.099 348.681 155.226 348.628 155.287 348.531 155.285 348.393 155.179 342.782 155.152 336.392 155.152 331.544" stroke="#C4AF7A" stroke-width="0.756632" stroke-miterlimit="8" fill="none" fill-rule="evenodd" transform="matrix(1.00108 0 0 1 276.765 865.678)"/><path d="M188.665 259.491C188.557 259.438 188.49 259.33 188.49 259.211L188.38 132.895C188.38 132.754 188.44 132.642 188.559 132.562 188.966 132.294 189.393 132.061 189.842 131.861 210.781 122.606 231.689 113.351 252.567 104.099 252.744 104.02 252.858 103.844 252.855 103.652 252.85 76.259 252.814 48.828 252.748 21.3595 252.73 13.672 248.666 11.1044 241.694 13.7856 220.177 22.0539 198.665 30.3376 177.16 38.636 174.345 39.7229 170.346 41.0636 167.938 42.5707 159.738 47.7022 160.242 54.5756 160.242 63.0547 160.246 155.582 160.246 248.108 160.242 340.632 160.242 345.166 160.101 351.009 160.314 356.606 160.586 363.854 165.593 364.865 171.528 362.585 194.467 353.771 217.408 344.956 240.349 336.141 249.336 332.687 252.813 327.354 252.828 317.758 252.841 309.053 252.845 300.316 252.844 291.545 252.844 291.405 252.781 291.305 252.658 291.243L188.665 259.491" stroke="#45627A" stroke-width="0.756632" stroke-miterlimit="8" fill="none" fill-rule="evenodd" transform="matrix(1.00108 0 0 1 276.765 865.678)"/><path d="M349.212 66.0891 349.113 102.449C349.113 102.588 349.176 102.629 349.303 102.574 356.161 99.5561 363.014 96.5222 369.858 93.4715 373.422 91.8792 375.099 91.0453 375.095 86.6438 375.095 77.1739 375.095 67.7014 375.095 58.2264 375.095 56.2779 374.385 54.8222 372.151 55.7965 368.591 57.3481 360.998 60.6957 349.375 65.8388 349.265 65.887 349.212 65.9705 349.212 66.0891" stroke="#45627A" stroke-width="0.756632" stroke-miterlimit="8" fill="none" fill-rule="evenodd" transform="matrix(1.00108 0 0 1 276.765 865.678)"/><path d="M197.047 132.7C196.987 132.727 196.962 132.796 196.989 132.855 197 132.88 197.019 132.9 197.044 132.912L235.544 152.357C235.574 152.373 235.61 152.375 235.643 152.361L344.346 104.728C344.388 104.71 344.418 104.668 344.418 104.622L344.418 68.2786C344.416 68.214 344.363 68.1625 344.299 68.1636 344.283 68.1641 344.269 68.1671 344.255 68.1727L197.047 132.7" stroke="#45627A" stroke-width="0.756632" stroke-miterlimit="8" fill="none" fill-rule="evenodd" transform="matrix(1.00108 0 0 1 276.765 865.678)"/><path d="M375.039 99.5592C375.031 97.9313 373.551 97.3935 372.234 97.969 364.61 101.326 356.993 104.715 349.381 108.135 349.256 108.19 349.193 108.289 349.193 108.43L349.113 144.489C349.113 144.606 349.209 144.701 349.325 144.701 349.356 144.701 349.384 144.695 349.412 144.682 356.179 141.729 362.868 138.796 369.481 135.883 373.18 134.255 375.095 133.381 375.095 128.826 375.091 119.065 375.072 109.31 375.039 99.5592" stroke="#45627A" stroke-width="0.756632" stroke-miterlimit="8" fill="none" fill-rule="evenodd" transform="matrix(1.00108 0 0 1 276.765 865.678)"/><path d="M241.667 155.317C241.598 155.348 241.567 155.428 241.597 155.497 241.609 155.526 241.631 155.549 241.659 155.564L280.181 175.05C280.217 175.069 280.261 175.07 280.299 175.054L344.335 146.926C344.385 146.905 344.418 146.855 344.418 146.801L344.418 110.403C344.418 110.327 344.357 110.266 344.28 110.267 344.263 110.267 344.246 110.271 344.229 110.278L241.667 155.317" stroke="#45627A" stroke-width="0.756632" stroke-miterlimit="8" fill="none" fill-rule="evenodd" transform="matrix(1.00108 0 0 1 276.765 865.678)"/><path d="M234.697 192.768C295.304 223.376 355.92 253.965 416.548 284.531 417.038 284.778 417.754 284.844 418.701 284.731 418.82 284.717 418.921 284.637 418.963 284.526 419.248 283.802 419.39 283.043 419.39 282.251 419.39 272.346 419.385 262.44 419.374 252.534 419.371 250.131 417.626 248.609 415.438 247.504 342.125 210.396 268.734 173.449 195.375 136.433 194.425 135.953 193.38 135.821 192.232 136.036 192.115 136.058 192.045 136.129 192.021 136.248 191.88 137.003 191.81 137.626 191.813 138.119 191.869 148.18 191.922 158.241 191.976 168.305 191.991 170.824 193.747 171.96 195.696 172.96 208.682 179.592 221.683 186.194 234.697 192.768" stroke="#C4AF7A" stroke-width="0.756632" stroke-miterlimit="8" fill="none" fill-rule="evenodd" transform="matrix(1.00108 0 0 1 276.765 865.678)"/><path d="M375.088 142.856C375.088 141.038 374.033 140.136 372.237 140.909 364.61 144.186 357.096 147.477 349.693 150.783 349.339 150.939 349.112 151.29 349.113 151.676L349.159 187.421C349.16 187.513 349.234 187.587 349.323 187.587 349.347 187.587 349.369 187.582 349.389 187.573 356.011 184.69 362.623 181.775 369.223 178.831 372.74 177.263 375.095 176.433 375.095 172.045 375.092 162.303 375.091 152.574 375.088 142.856" stroke="#45627A" stroke-width="0.756632" stroke-miterlimit="8" fill="none" fill-rule="evenodd" transform="matrix(1.00108 0 0 1 276.765 865.678)"/><path d="M287.233 178.213C287.15 178.247 287.11 178.341 287.145 178.424 287.161 178.46 287.187 178.49 287.222 178.507L325.615 197.9C325.659 197.922 325.709 197.923 325.755 197.903L344.319 189.755C344.379 189.73 344.418 189.672 344.418 189.608L344.418 153.474C344.42 153.384 344.348 153.311 344.257 153.309 344.235 153.309 344.211 153.313 344.191 153.323L287.233 178.213" stroke="#45627A" stroke-width="0.756632" stroke-miterlimit="8" fill="none" fill-rule="evenodd" transform="matrix(1.00108 0 0 1 276.765 865.678)"/><path d="M195.475 215.026C263 249.156 330.586 283.172 398.132 317.271 404.167 320.32 410.217 323.346 416.279 326.351 417.075 326.749 417.844 326.764 418.687 326.708 419.065 326.681 419.357 326.368 419.354 325.993 419.335 315.55 419.434 305.116 419.365 294.666 419.343 290.53 414.749 289.25 411.666 287.694 339.38 251.226 267.079 214.78 194.768 178.36 194.093 178.019 193.226 177.95 192.165 178.152 192.029 178.177 191.955 178.258 191.943 178.395 191.899 178.816 191.877 179.435 191.874 180.252 191.829 195.737 191.808 205.64 191.813 209.963 191.818 212.641 193.131 213.838 195.475 215.026" stroke="#C4AF7A" stroke-width="0.756632" stroke-miterlimit="8" fill="none" fill-rule="evenodd" transform="matrix(1.00108 0 0 1 276.765 865.678)"/><path d="M419.359 339.366C419.351 336.849 419.255 334.75 416.995 333.438 415.313 332.46 412.582 331.028 408.805 329.14 337.334 293.429 266.129 257.161 194.791 221.183 194.1 220.834 193.301 220.706 192.395 220.797 192.265 220.808 192.157 220.899 192.123 221.024 191.983 221.537 191.911 222.18 191.907 222.954 191.824 233.093 191.796 243.231 191.824 253.367 191.827 255.606 193.977 257.247 195.813 258.172 269.137 295.204 342.465 332.227 415.796 369.24 416.618 369.655 417.573 369.885 418.658 369.93 418.783 369.935 418.896 369.858 418.938 369.741 419.23 368.943 419.378 368.112 419.381 367.251 419.398 357.955 419.392 348.661 419.359 339.366" stroke="#C4AF7A" stroke-width="0.756632" stroke-miterlimit="8" fill="none" fill-rule="evenodd" transform="matrix(1.00108 0 0 1 276.765 865.678)"/><path d="M155.074 331.466C155.074 336.313 155.101 342.704 155.206 348.315 155.209 348.453 155.147 348.55 155.021 348.603 151.133 350.253 148.288 351.472 144.74 350.946 140.348 350.298 140.488 344.006 140.484 340.863 140.421 249.534 140.392 158.204 140.397 66.8739 140.397 61.3236 140.556 55.0159 140.499 49.0756 140.42 40.5419 144.88 35.726 152.426 32.8145 174.981 24.1168 197.538 15.4188 220.096 6.72098 222.509 5.79336 226.976 4.88471 229 6.60362 230.373 7.76591 230.989 10.1095 231.323 11.889 231.382 12.2075 231.205 12.5239 230.902 12.6424 209.803 20.8102 188.595 28.9931 167.28 37.1912 160.055 39.9739 155.411 45.2934 155.248 53.2744 155.18 56.7348 155.145 60.2017 155.142 63.6747 155.066 152.94 155.044 242.204 155.074 331.466Z" fill="#FE9900" fill-rule="evenodd" transform="matrix(1.00108 0 0 1 276.765 865.678)"/><path d="M188.587 259.413 252.579 291.164C252.703 291.227 252.766 291.327 252.766 291.466 252.767 300.238 252.763 308.976 252.75 317.68 252.734 327.276 249.258 332.609 240.271 336.063 217.33 344.878 194.389 353.693 171.45 362.507 165.515 364.787 160.508 363.776 160.235 356.528 160.022 350.931 160.163 345.088 160.163 340.554 160.168 248.029 160.168 155.504 160.163 62.9766 160.163 54.4974 159.659 47.6239 167.859 42.4926 170.268 40.9853 174.267 39.6446 177.081 38.5578 198.587 30.2593 220.099 21.9756 241.615 13.7073 248.588 11.0261 252.651 13.5937 252.67 21.2814 252.736 48.7499 252.772 76.1808 252.777 103.573 252.78 103.766 252.666 103.942 252.489 104.02 231.611 113.273 210.703 122.527 189.764 131.783 189.315 131.983 188.888 132.216 188.481 132.484 188.362 132.564 188.302 132.676 188.302 132.817L188.412 259.133C188.412 259.252 188.479 259.36 188.587 259.413Z" fill-rule="evenodd" transform="matrix(1.00108 0 0 1 276.765 865.678)"/><path d="M349.035 102.37 349.134 66.0109C349.134 65.8922 349.187 65.8088 349.297 65.7606 360.92 60.6174 368.512 57.2698 372.073 55.7182 374.307 54.7439 375.017 56.1997 375.017 58.1483 375.017 67.6232 375.017 77.0956 375.017 86.5656 375.02 90.967 373.344 91.801 369.78 93.3932 362.936 96.4439 356.083 99.4777 349.225 102.495 349.098 102.551 349.035 102.509 349.035 102.37Z" fill-rule="evenodd" transform="matrix(1.00108 0 0 1 276.765 865.678)"/><path d="M196.969 132.622 344.177 68.0944C344.236 68.0694 344.305 68.0974 344.33 68.1573 344.337 68.171 344.34 68.1857 344.34 68.2005L344.34 104.544C344.34 104.59 344.31 104.632 344.268 104.65L235.564 152.283C235.531 152.296 235.495 152.295 235.466 152.279L196.965 132.834C196.908 132.805 196.882 132.734 196.912 132.676 196.925 132.652 196.944 132.633 196.969 132.622Z" fill-rule="evenodd" transform="matrix(1.00108 0 0 1 276.765 865.678)"/><path d="M372.156 97.8908C373.472 97.3152 374.953 97.8529 374.961 99.481 374.994 109.231 375.013 118.987 375.017 128.748 375.017 133.302 373.101 134.177 369.403 135.805 362.79 138.718 356.1 141.651 349.334 144.604 349.228 144.652 349.103 144.604 349.054 144.498 349.042 144.47 349.035 144.441 349.035 144.411L349.115 108.352C349.115 108.211 349.178 108.112 349.303 108.057 356.914 104.637 364.532 101.248 372.156 97.8908Z" fill-rule="evenodd" transform="matrix(1.00108 0 0 1 276.765 865.678)"/><path d="M241.589 155.239 344.15 110.199C344.219 110.17 344.299 110.202 344.329 110.272 344.337 110.289 344.34 110.306 344.34 110.325L344.34 146.723C344.34 146.777 344.307 146.826 344.257 146.848L280.221 174.976C280.183 174.992 280.139 174.99 280.103 174.972L241.581 155.485C241.515 155.451 241.489 155.369 241.523 155.302 241.537 155.274 241.561 155.251 241.589 155.239Z" fill-rule="evenodd" transform="matrix(1.00108 0 0 1 276.765 865.678)"/><path d="M234.619 192.689C221.604 186.116 208.604 179.514 195.618 172.882 193.669 171.882 191.913 170.746 191.897 168.227 191.844 158.163 191.791 148.101 191.735 138.041 191.731 137.548 191.802 136.924 191.943 136.169 191.966 136.051 192.037 135.98 192.156 135.957 193.301 135.742 194.347 135.875 195.297 136.355 268.655 173.37 342.047 210.318 415.36 247.425 417.548 248.53 419.293 250.053 419.296 252.456 419.307 262.362 419.312 272.268 419.312 282.172 419.312 282.964 419.169 283.723 418.885 284.448 418.842 284.561 418.742 284.639 418.623 284.653 417.676 284.766 416.959 284.7 416.469 284.453 355.842 253.886 295.226 223.298 234.619 192.689Z" fill="#FE9900" fill-rule="evenodd" transform="matrix(1.00108 0 0 1 276.765 865.678)"/><path d="M372.159 140.831C373.954 140.058 375.009 140.96 375.009 142.777 375.013 152.496 375.014 162.225 375.017 171.966 375.017 176.355 372.662 177.185 369.145 178.753 362.544 181.697 355.933 184.611 349.311 187.495 349.229 187.532 349.132 187.495 349.095 187.41 349.085 187.388 349.081 187.366 349.081 187.343L349.035 151.598C349.034 151.212 349.261 150.861 349.614 150.704 357.018 147.399 364.532 144.108 372.159 140.831Z" fill-rule="evenodd" transform="matrix(1.00108 0 0 1 276.765 865.678)"/><path d="M287.154 178.135 344.113 153.244C344.196 153.209 344.291 153.247 344.327 153.329 344.335 153.35 344.34 153.373 344.34 153.396L344.34 189.529C344.34 189.593 344.301 189.651 344.241 189.676L325.676 197.825C325.631 197.845 325.581 197.844 325.537 197.822L287.143 178.429C287.063 178.388 287.031 178.29 287.071 178.21 287.09 178.175 287.118 178.149 287.154 178.135Z" fill-rule="evenodd" transform="matrix(1.00108 0 0 1 276.765 865.678)"/><path d="M398.054 317.193C330.508 283.094 262.922 249.078 195.397 214.948 193.054 213.76 191.739 212.562 191.735 209.884 191.73 205.561 191.75 195.658 191.796 180.174 191.799 179.357 191.821 178.737 191.865 178.316 191.877 178.18 191.951 178.099 192.087 178.074 193.148 177.872 194.015 177.941 194.69 178.282 267.001 214.702 339.301 251.147 411.588 287.616 414.671 289.172 419.265 290.452 419.287 294.587 419.356 305.038 419.257 315.472 419.276 325.914 419.279 326.29 418.986 326.603 418.609 326.63 417.765 326.686 416.997 326.67 416.2 326.273 410.138 323.268 404.089 320.242 398.054 317.193Z" fill="#FE9900" fill-rule="evenodd" transform="matrix(1.00108 0 0 1 276.765 865.678)"/><path d="M416.917 333.36C419.177 334.672 419.273 336.77 419.279 339.287 419.313 348.583 419.32 357.877 419.302 367.173 419.299 368.033 419.152 368.865 418.86 369.663 418.817 369.78 418.705 369.857 418.579 369.852 417.495 369.807 416.54 369.577 415.718 369.162 342.386 332.149 269.059 295.126 195.735 258.094 193.899 257.169 191.749 255.528 191.746 253.288 191.717 243.152 191.746 233.015 191.829 222.875 191.833 222.102 191.905 221.459 192.045 220.946 192.079 220.82 192.187 220.73 192.317 220.719 193.223 220.628 194.021 220.756 194.713 221.105 266.051 257.082 337.256 293.351 408.727 329.062 412.503 330.95 415.235 332.382 416.917 333.36Z" fill="#FE9900" fill-rule="evenodd" transform="matrix(1.00108 0 0 1 276.765 865.678)"/></g></g></g></g></svg>