<svg width="1070" height="361" xmlns="http://www.w3.org/2000/svg" xmlns:xlink="http://www.w3.org/1999/xlink" xml:space="preserve" overflow="hidden"><g transform="translate(1493 -951)"><path d="M-518.125 1064.5C-488.401 1117.36-505.548 1153.18-544.963 1189.02-569.042 1210.93-593.049 1232.9-616.99 1254.94-620.083 1257.76-622.052 1260.06-622.9 1261.82-624.361 1264.9-623.062 1268.58-619.993 1270.04-619.196 1270.42-618.323 1270.63-617.437 1270.64-594.619 1270.96-571.974 1271.24-549.499 1271.47-516.809 1271.77-494.803 1270.1-483.487 1266.47-428.367 1248.81-409.639 1180.66-443.281 1134.34-447.312 1128.78-454.243 1121.59-464.071 1112.75" stroke="#80CDED" stroke-width="6.875" stroke-miterlimit="8" fill="none" fill-rule="evenodd"/><path d="M-464.299 1112.5C-429.127 1085.9-417.471 1044.67-436.747 1004.6-452.309 972.284-481.195 955.66-523.402 954.723-537.288 954.426-568.495 954.426-617.022 954.723-617.846 954.724-618.612 955.091-619.091 955.717L-623.229 961.064C-625.091 963.464-624.908 965.703-622.677 967.783L-518.54 1064.48" stroke="#FDDC80" stroke-width="6.875" stroke-miterlimit="8" fill="none" fill-rule="evenodd"/><path d="M-464.5 1112.5-518.5 1064.5" stroke="#7EAA6E" stroke-width="6.875" stroke-miterlimit="8" fill="none" fill-rule="evenodd"/><path d="M-1389.22 1047.47C-1408.31 1028.92-1461.51 1033.71-1486.55 1035.05-1488.21 1035.14-1489.5 1036.51-1489.5 1038.16L-1489.5 1189.5C-1489.5 1190.52-1488.98 1191.05-1487.95 1191.07-1449.19 1191.66-1424.02 1191.64-1412.43 1191-1364.66 1188.37-1348.69 1129.81-1390.97 1104.9-1391.84 1104.37-1392.12 1103.23-1391.59 1102.36-1391.55 1102.29-1391.5 1102.22-1391.45 1102.16-1377.92 1085.12-1372.46 1063.83-1389.22 1047.47" stroke="#A2B0B6" stroke-width="6.875" stroke-miterlimit="8" fill="none" fill-rule="evenodd"/><path d="M-1024.95 1123.84-1025.19 1037.56C-1025.19 1036.6-1025.82 1035.75-1026.73 1035.49-1034.8 1033.1-1042.93 1032.86-1051.13 1034.77-1052.48 1035.09-1053.44 1036.3-1053.43 1037.7L-1053.5 1189.39C-1053.5 1191.12-1052.64 1191.98-1050.92 1191.98L-1026.84 1191.98C-1025.69 1191.98-1025.12 1191.4-1025.12 1190.25L-1025.12 1149.17C-1025.1 1148.1-1024.23 1147.25-1023.16 1147.27-1022.6 1147.28-1022.08 1147.53-1021.72 1147.96L-986.431 1190.39C-985.675 1191.31-984.689 1191.8-983.476 1191.84L-959.081 1192.5C-954.041 1192.61-953.161 1190.76-956.435 1186.95L-1000.07 1136.07C-1000.66 1135.41-1000.64 1134.42-1000.04 1133.8L-956.401 1088.23C-954.776 1086.53-955.14 1085.66-957.501 1085.61L-984.129 1084.96C-985.617 1084.93-986.878 1085.47-987.908 1086.57L-1022.75 1124.7C-1023.23 1125.21-1024.03 1125.24-1024.55 1124.76-1024.8 1124.52-1024.94 1124.18-1024.95 1123.84" stroke="#A2B0B6" stroke-width="6.875" stroke-miterlimit="8" fill="none" fill-rule="evenodd"/><path d="M-1192.68 1180.17-1191.44 1189.57C-1191.26 1190.85-1190.52 1191.49-1189.23 1191.49L-1169.99 1191.73C-1168.47 1191.76-1167.71 1191.01-1167.71 1189.5L-1167.5 1086.61C-1167.5 1085.36-1168.13 1084.75-1169.4 1084.8L-1189.37 1085.52C-1190.59 1085.55-1191.57 1086.51-1191.61 1087.71L-1191.99 1096.08C-1192.02 1097.01-1192.79 1097.74-1193.73 1097.72-1194.15 1097.71-1194.56 1097.54-1194.86 1097.25-1208.91 1083.85-1224.78 1079-1242.46 1082.7-1288.44 1092.38-1296.04 1155.95-1263.95 1183.09-1242.53 1201.17-1214.79 1199.14-1195.31 1179.31-1193.83 1177.8-1192.96 1178.09-1192.68 1180.17" stroke="#A2B0B6" stroke-width="6.875" stroke-miterlimit="8" fill="none" fill-rule="evenodd"/><path d="M-927.522 1144.12-844.908 1144.12C-842.569 1144.12-841.434 1142.97-841.503 1140.65-844.289 1054.29-967.315 1066.52-952.216 1151.17-942.586 1204.99-864.1 1211.48-845.011 1161.41-843.59 1157.67-844.873 1155.88-848.863 1156.01L-865.578 1156.53C-866.5 1156.55-867.384 1156.96-868.02 1157.66-885.104 1176.22-903.377 1177.62-922.844 1161.86-926.672 1158.76-928.701 1153.33-928.932 1145.57-928.956 1144.6-928.485 1144.12-927.522 1144.12" stroke="#A2B0B6" stroke-width="6.875" stroke-miterlimit="8" fill="none" fill-rule="evenodd"/><path d="M-804.058 1097.44-806.19 1088.07C-806.465 1086.89-807.211 1086.26-808.424 1086.19L-823.962 1085.27C-826.31 1085.12-828.338 1086.92-828.49 1089.29-828.497 1089.39-828.5 1089.48-828.5 1089.58L-828.225 1189.62C-828.225 1190.66-827.379 1191.5-826.334 1191.5L-801.308 1191.5C-800.263 1191.5-799.414 1190.67-799.411 1189.63-799.411 1189.57-799.411 1189.51-799.418 1189.45-800.837 1169.18-800.827 1148.77-799.383 1128.23-797.389 1099.91-752.7 1099.67-752.425 1127.51-752.194 1148.21-752.16 1168.95-752.322 1189.72-752.322 1190.91-751.727 1191.5-750.534 1191.5L-728.224 1191.5C-727.031 1191.5-726.446 1190.91-726.47 1189.72-726.539 1169.59-726.481 1149.44-726.299 1129.29-726.092 1102.2-679.443 1098.74-679.306 1125.66-679.192 1147-679.158 1168.36-679.203 1189.72-679.203 1190.91-678.618 1191.5-677.449 1191.5L-653.558 1191.5C-652.344 1191.5-651.725 1190.89-651.701 1189.69-651.244 1164.97-651.564 1140.29-652.664 1115.64-654.348 1077.26-711.551 1072.37-729.083 1100.93-729.633 1101.8-730.207 1101.82-730.802 1101-746.409 1079.62-784.12 1074.39-800.896 1098.06-801.442 1098.85-802.532 1099.06-803.333 1098.52-803.704 1098.27-803.962 1097.88-804.058 1097.44" stroke="#A2B0B6" stroke-width="6.875" stroke-miterlimit="8" fill="none" fill-rule="evenodd"/><path d="M-1290.02 1084.92C-1313.49 1084.68-1350.46 1079.22-1350.49 1115.95-1350.52 1140.52-1350.47 1165.14-1350.36 1189.78-1350.36 1190.93-1349.78 1191.5-1348.64 1191.5L-1324.61 1191.5C-1323.46 1191.5-1322.89 1190.93-1322.89 1189.78L-1322.89 1118.08C-1322.89 1112.07-1319.88 1108.97-1313.87 1108.76L-1289.12 1107.94C-1288.04 1107.89-1287.47 1107.33-1287.4 1106.26L-1286.5 1088.67C-1286.41 1086.69-1287.93 1085.02-1289.91 1084.92-1289.94 1084.92-1289.98 1084.92-1290.02 1084.92" stroke="#A2B0B6" stroke-width="6.875" stroke-miterlimit="8" fill="none" fill-rule="evenodd"/><path d="M-1080.64 1138.19C-1094.11 1130.64-1108.04 1123.93-1122.43 1118.05-1124.76 1117.12-1125.86 1114.49-1124.91 1112.18-1124.22 1110.53-1122.61 1109.42-1120.81 1109.37L-1077.22 1108.06C-1076.18 1108.04-1075.66 1107.52-1075.66 1106.49L-1075.66 1088.64C-1075.66 1086.49-1076.73 1085.4-1078.88 1085.35-1097.28 1084.9-1129.77 1081.61-1143.23 1091.94-1160.38 1105.11-1153.08 1130.37-1134.23 1138.12-1121.54 1143.34-1109.49 1148.54-1098.08 1153.73-1094.2 1155.48-1092.48 1160.02-1094.25 1163.87-1095.5 1166.59-1098.24 1168.35-1101.26 1168.35L-1148.76 1168.45C-1151.38 1168.45-1153.5 1170.56-1153.5 1173.16L-1153.5 1189.83C-1153.5 1191-1152.91 1191.58-1151.74 1191.58-1134.4 1191.58-1099.22 1195.08-1085.17 1188.42-1066.7 1179.64-1061.34 1148.96-1080.64 1138.19" stroke="#A2B0B6" stroke-width="6.875" stroke-miterlimit="8" fill="none" fill-rule="evenodd"/><path d="M-1438.29 1240.91C-1439.48 1239.81-1440.88 1239.23-1442.49 1239.19L-1478.68 1238.5C-1480.49 1238.46-1481.42 1239.35-1481.47 1241.18L-1482.5 1304.99C-1482.52 1306.55-1481.75 1307.34-1480.19 1307.36L-1475.17 1307.5C-1473.88 1307.54-1473.21 1306.91-1473.17 1305.61L-1472.58 1284.02C-1472.53 1282.35-1471.12 1281.04-1469.45 1281.1-1469.34 1281.1-1469.22 1281.11-1469.11 1281.13-1457.33 1282.92-1438.63 1282.61-1431.78 1270.75-1425.82 1260.41-1427.98 1250.46-1438.29 1240.91" stroke="#80CDED" stroke-width="6.875" stroke-miterlimit="8" fill="none" fill-rule="evenodd"/><path d="M-1364.78 1282.85C-1359.95 1306.95-1412.39 1309.59-1410.2 1269.58-1408.91 1246.38-1376.64 1234.82-1365.86 1257.34-1364.83 1259.51-1362.22 1260.43-1360.03 1259.41-1358.18 1258.55-1357.18 1256.53-1357.62 1254.56-1361.66 1236.44-1391.32 1235.58-1403.31 1242.53-1429.6 1257.75-1425.53 1301.24-1392.5 1306.81-1380.4 1308.87-1368.79 1306.33-1357.69 1299.18-1356.77 1298.57-1356.2 1297.57-1356.16 1296.49L-1355.5 1275.39C-1355.46 1274.12-1356.47 1273.05-1357.76 1273.02-1357.78 1273.02-1357.81 1273.02-1357.83 1273.02L-1383.07 1273.02C-1384.54 1273.02-1385.37 1273.73-1385.58 1275.15L-1386.27 1279.65C-1386.46 1280.96-1385.89 1281.61-1384.57 1281.61L-1366.31 1281.61C-1365.46 1281.61-1364.95 1282.02-1364.78 1282.85" stroke="#80CDED" stroke-width="6.875" stroke-miterlimit="8" fill="none" fill-rule="evenodd"/><path d="M-1310.83 1294.27-1328.66 1240.14C-1329.09 1238.81-1330.32 1237.91-1331.72 1237.91L-1342.3 1238.02C-1343.52 1238.02-1344.5 1239.03-1344.5 1240.27L-1344.5 1305.1C-1344.5 1306.34-1343.5 1307.36-1342.27 1307.36L-1335.46 1307.36C-1333.93 1307.36-1333.16 1306.57-1333.16 1304.99L-1333.68 1256.35C-1333.67 1256.04-1333.41 1255.8-1333.11 1255.82-1332.89 1255.82-1332.69 1255.96-1332.61 1256.18L-1316.29 1304.27C-1315.21 1307.52-1311.72 1309.27-1308.5 1308.17-1306.65 1307.55-1305.21 1306.07-1304.61 1304.2L-1288.01 1253.29C-1287.81 1252.78-1287.24 1252.52-1286.72 1252.72-1286.36 1252.86-1286.11 1253.21-1286.09 1253.61L-1286.09 1305.24C-1286.09 1306.67-1285.37 1307.39-1283.92 1307.39L-1279.63 1307.39C-1278.21 1307.39-1277.5 1306.67-1277.5 1305.24L-1277.5 1243.64C-1277.51 1239.69-1280.68 1236.49-1284.59 1236.5-1287.58 1236.5-1290.24 1238.4-1291.24 1241.25L-1309.69 1294.27C-1309.82 1294.58-1310.17 1294.75-1310.48 1294.64-1310.65 1294.58-1310.78 1294.44-1310.83 1294.27" stroke="#80CDED" stroke-width="6.875" stroke-miterlimit="8" fill="none" fill-rule="evenodd"/><path d="M-1230.49 1298.42C-1231.48 1298.53-1232.37 1297.83-1232.48 1296.85-1232.54 1296.28-1232.33 1295.71-1231.91 1295.33-1222.08 1286.73-1205.97 1276.56-1201.38 1263.77-1190.96 1234.61-1239.5 1226.98-1244.29 1254.96-1244.57 1256.52-1243.94 1257.43-1242.4 1257.68L-1237.05 1258.54C-1235.82 1258.73-1234.68 1257.9-1234.49 1256.68-1234.47 1256.59-1234.46 1256.5-1234.46 1256.41-1233.56 1233.17-1193.79 1248.95-1215.25 1269.3-1223.66 1277.28-1245.5 1292.99-1245.5 1304.61-1245.5 1305.87-1244.87 1306.5-1243.6 1306.5L-1203 1306.5C-1201.06 1306.49-1199.49 1304.92-1199.5 1302.98-1199.5 1302.4-1199.65 1301.82-1199.93 1301.31-1201.4 1298.6-1203.67 1297.36-1206.73 1297.56-1214.7 1298.08-1222.66 1297.39-1230.49 1298.42" stroke="#80CDED" stroke-width="6.875" stroke-miterlimit="8" fill="none" fill-rule="evenodd"/><path d="M-1146.5 1258.89C-1146.5 1247.63-1155.71 1238.5-1167.07 1238.5L-1169.92 1238.5C-1181.29 1238.5-1190.5 1247.63-1190.5 1258.89L-1190.5 1286.11C-1190.5 1297.37-1181.29 1306.5-1169.92 1306.5L-1167.07 1306.5C-1155.71 1306.5-1146.5 1297.37-1146.5 1286.11L-1146.5 1258.89" stroke="#80CDED" stroke-width="6.875" stroke-miterlimit="8" fill="none" fill-rule="evenodd"/><path d="M-1124.43 1297.97C-1125.21 1297.96-1125.84 1297.32-1125.83 1296.55-1125.82 1296.13-1125.63 1295.73-1125.3 1295.47-1112.25 1285.41-1083.3 1265.81-1095.89 1247.62-1107.45 1230.89-1131.42 1235.88-1137.92 1255.4-1138.34 1256.67-1137.89 1257.44-1136.57 1257.69L-1130.59 1258.78C-1129.41 1259.01-1128.26 1258.25-1128.03 1257.08-1128.03 1257.08-1128.03 1257.08-1128.03 1257.07-1123.43 1234.03-1091.22 1249.12-1105.78 1267.08-1114.43 1277.69-1133.32 1287.42-1139.38 1303.84-1139.76 1304.86-1139.22 1306-1138.19 1306.38-1137.96 1306.46-1137.72 1306.5-1137.47 1306.5L-1094.75 1306.5C-1093.5 1306.48-1092.5 1305.48-1092.5 1304.25L-1092.5 1302.23C-1092.5 1299.88-1094.44 1297.97-1096.82 1297.97L-1124.43 1297.97" stroke="#80CDED" stroke-width="6.875" stroke-miterlimit="8" fill="none" fill-rule="evenodd"/><path d="M-1048.53 1267.82C-1027.95 1243.47-1072.63 1222.87-1083.5 1254.96-1083.95 1256.29-1083.51 1257.16-1082.17 1257.57L-1077.91 1258.91C-1076.18 1259.43-1075.08 1258.81-1074.6 1257.05-1066.73 1228.01-1034.15 1262.47-1064.35 1266.18-1066.14 1266.41-1067.4 1268.07-1067.16 1269.87-1066.99 1271.19-1066.04 1272.28-1064.75 1272.62L-1055.42 1275.06C-1054.14 1275.4-1053.13 1276.12-1052.38 1277.22-1038.95 1296.73-1069.46 1311.65-1075.01 1288.81-1075.33 1287.54-1076.55 1286.71-1077.84 1286.89L-1082.58 1287.51C-1084.12 1287.71-1084.74 1288.58-1084.42 1290.11-1079.2 1315.8-1039.36 1312.13-1039.5 1285.04-1039.52 1278.5-1042.45 1273.33-1048.29 1269.54-1049 1269.06-1049.08 1268.48-1048.53 1267.82" stroke="#80CDED" stroke-width="6.875" stroke-miterlimit="8" fill="none" fill-rule="evenodd"/><path d="M-1460.36 1058.52-1460.5 1095.38C-1460.5 1095.94-1460.03 1096.4-1459.46 1096.4L-1428.64 1096.5C-1416.46 1096.55-1406.55 1089.01-1406.5 1079.66L-1406.5 1074.64C-1406.45 1065.29-1416.28 1057.66-1428.47 1057.6-1428.48 1057.6-1428.49 1057.6-1428.5 1057.6L-1459.32 1057.5C-1459.89 1057.5-1460.36 1057.96-1460.36 1058.52" stroke="#A2B0B6" stroke-width="6.875" stroke-miterlimit="8" fill="none" fill-rule="evenodd"/><path d="M-1460.5 1121.53-1460.43 1167.58C-1460.43 1168.09-1460.01 1168.5-1459.5 1168.5L-1417.34 1168.4C-1404.71 1168.38-1394.48 1159.01-1394.5 1147.46L-1394.5 1141.37C-1394.52 1129.82-1404.77 1120.48-1417.41 1120.5-1417.41 1120.5-1417.41 1120.5-1417.41 1120.5L-1459.57 1120.6C-1460.08 1120.6-1460.5 1121.02-1460.5 1121.53" stroke="#A2B0B6" stroke-width="6.875" stroke-miterlimit="8" fill="none" fill-rule="evenodd"/><path d="M-1223.97 1171.48C-1206.58 1170.94-1192.94 1155.73-1193.52 1137.51-1194.09 1119.29-1208.65 1104.97-1226.04 1105.52-1243.42 1106.06-1257.05 1121.27-1256.48 1139.49-1255.91 1157.71-1241.35 1172.03-1223.97 1171.48" stroke="#A2B0B6" stroke-width="6.875" stroke-miterlimit="8" fill="none" fill-rule="evenodd"/><path d="M-927.119 1126.5-868.879 1125.81C-868.669 1125.81-868.5 1125.65-868.5 1125.44L-868.5 1125.23C-868.635 1113.6-881.735 1104.31-897.758 1104.5-897.768 1104.5-897.782 1104.5-897.792 1104.5L-898.759 1104.5C-914.774 1104.7-927.637 1114.29-927.499 1125.92L-927.499 1126.12C-927.499 1126.33-927.33 1126.5-927.119 1126.5" stroke="#A2B0B6" stroke-width="6.875" stroke-miterlimit="8" fill="none" fill-rule="evenodd"/><path d="M-1472.5 1248.91-1472.5 1270.09C-1472.5 1271.42-1471.43 1272.5-1470.1 1272.5L-1451.01 1272.5C-1444.1 1272.5-1438.5 1266.8-1438.5 1259.78L-1438.5 1259.22C-1438.5 1252.2-1444.1 1246.5-1451.01 1246.5L-1470.1 1246.5C-1471.43 1246.5-1472.5 1247.58-1472.5 1248.91" stroke="#80CDED" stroke-width="6.875" stroke-miterlimit="8" fill="none" fill-rule="evenodd"/><path d="M-1168.11 1300.5C-1160.38 1300.39-1154.29 1287.77-1154.51 1272.31-1154.72 1256.84-1161.17 1244.39-1168.89 1244.5-1176.62 1244.61-1182.71 1257.23-1182.49 1272.69-1182.28 1288.16-1175.83 1300.61-1168.11 1300.5" stroke="#80CDED" stroke-width="6.875" stroke-miterlimit="8" fill="none" fill-rule="evenodd"/><path d="M-464.799 1112-519.04 1063.98-623.177 967.282C-625.408 965.203-625.591 962.963-623.729 960.564L-619.591 955.217C-619.111 954.591-618.346 954.223-617.522 954.223-568.995 953.926-537.788 953.926-523.902 954.223-481.695 955.16-452.809 971.784-437.247 1004.1-417.971 1044.17-429.627 1085.4-464.799 1112Z" fill="#FBB800" fill-rule="evenodd"/><path d="M-1487.05 1034.55C-1462.01 1033.21-1408.81 1028.42-1389.72 1046.97-1372.96 1063.33-1378.42 1084.62-1391.95 1101.66-1392.59 1102.46-1392.46 1103.62-1391.67 1104.26-1391.6 1104.31-1391.54 1104.36-1391.47 1104.4-1349.19 1129.31-1365.16 1187.87-1412.93 1190.5-1424.52 1191.14-1449.69 1191.16-1488.45 1190.57-1489.48 1190.55-1490 1190.02-1490 1189L-1490 1037.66C-1490 1036.01-1488.71 1034.64-1487.05 1034.55ZM-1460.74 1057.92-1460.88 1095.09C-1460.88 1095.66-1460.42 1096.12-1459.85 1096.12L-1429.38 1096.22C-1417.35 1096.27-1407.56 1088.67-1407.51 1079.24L-1407.51 1074.18C-1407.45 1064.75-1417.18 1057.06-1429.22 1057-1429.23 1057-1429.24 1057-1429.25 1057L-1459.71 1056.9C-1460.28 1056.9-1460.74 1057.36-1460.74 1057.92ZM-1460.94 1120.52-1460.88 1166.51C-1460.88 1167.02-1460.46 1167.44-1459.95 1167.44L-1418.12 1167.33C-1405.58 1167.31-1395.43 1157.95-1395.45 1146.42L-1395.45 1140.33C-1395.47 1128.8-1405.65 1119.47-1418.18 1119.49-1418.18 1119.49-1418.19 1119.49-1418.19 1119.49L-1460.02 1119.59C-1460.53 1119.59-1460.94 1120.01-1460.94 1120.52Z" fill="#45606C" fill-rule="evenodd"/><path d="M-1023.25 1124.2-988.408 1086.07C-987.377 1084.97-986.117 1084.43-984.629 1084.46L-958 1085.11C-955.64 1085.16-955.275 1086.03-956.901 1087.73L-1000.54 1133.3C-1001.14 1133.92-1001.16 1134.91-1000.57 1135.57L-956.935 1186.45C-953.661 1190.26-954.54 1192.11-959.581 1192L-983.976 1191.34C-985.189 1191.3-986.175 1190.81-986.931 1189.89L-1022.22 1147.46C-1022.9 1146.64-1024.11 1146.53-1024.93 1147.22-1025.36 1147.58-1025.61 1148.11-1025.62 1148.67L-1025.62 1189.75C-1025.62 1190.9-1026.19 1191.48-1027.34 1191.48L-1051.42 1191.48C-1053.14 1191.48-1054 1190.62-1054 1188.89L-1053.93 1037.2C-1053.94 1035.8-1052.98 1034.59-1051.63 1034.27-1043.43 1032.36-1035.3 1032.6-1027.23 1034.99-1026.32 1035.25-1025.69 1036.1-1025.69 1037.06L-1025.45 1123.34C-1025.44 1124.04-1024.87 1124.61-1024.17 1124.6-1023.82 1124.6-1023.49 1124.45-1023.25 1124.2Z" fill="#45606C" fill-rule="evenodd"/><path d="M-518.626 1064-464.571 1112.25C-454.743 1121.08-447.812 1128.28-443.781 1133.84-410.139 1180.16-428.867 1248.31-483.987 1265.97-495.303 1269.6-517.31 1271.27-550 1270.97-572.474 1270.73-595.12 1270.46-617.937 1270.14-621.336 1270.09-624.047 1267.29-623.999 1263.89-623.985 1263-623.783 1262.13-623.401 1261.32-622.552 1259.56-620.584 1257.26-617.491 1254.44-593.549 1232.4-569.543 1210.43-545.464 1188.52-506.048 1152.67-488.901 1116.86-518.626 1064Z" fill="#009BDB" fill-rule="evenodd"/><path d="M-1195.81 1178.81C-1215.29 1198.64-1243.03 1200.67-1264.45 1182.59-1296.54 1155.45-1288.94 1091.88-1242.96 1082.2-1225.28 1078.5-1209.41 1083.35-1195.36 1096.75-1194.69 1097.4-1193.62 1097.38-1192.97 1096.71-1192.67 1096.4-1192.5 1096-1192.49 1095.58L-1192.11 1087.21C-1192.07 1086.01-1191.09 1085.05-1189.87 1085.02L-1169.9 1084.3C-1168.63 1084.25-1168 1084.86-1168 1086.11L-1168.21 1189C-1168.21 1190.51-1168.97 1191.26-1170.49 1191.23L-1189.73 1190.99C-1191.02 1190.99-1191.76 1190.35-1191.94 1189.07L-1193.18 1179.67C-1193.46 1177.59-1194.33 1177.3-1195.81 1178.81ZM-1224.51 1171.01C-1206.96 1170.46-1193.21 1155.23-1193.79 1137-1194.36 1118.76-1209.05 1104.42-1226.6 1104.97-1244.14 1105.51-1257.9 1120.74-1257.32 1138.98-1256.74 1157.22-1242.05 1171.56-1224.51 1171.01Z" fill="#45606C" fill-rule="evenodd"/><path d="M-929.432 1145.07C-929.201 1152.83-927.172 1158.26-923.344 1161.36-903.877 1177.12-885.604 1175.72-868.52 1157.16-867.884 1156.46-867 1156.05-866.078 1156.03L-849.363 1155.51C-845.373 1155.38-844.09 1157.17-845.511 1160.91-864.599 1210.98-943.086 1204.49-952.716 1150.67-967.815 1066.02-844.789 1053.79-842.002 1140.15-841.934 1142.47-843.069 1143.62-845.407 1143.62L-928.022 1143.62C-928.985 1143.62-929.456 1144.1-929.432 1145.07ZM-927.402 1125.89-869.346 1125.2C-869.136 1125.2-868.967 1125.03-868.967 1124.83L-868.967 1124.62C-869.101 1112.95-882.161 1103.64-898.133 1103.83-898.144 1103.83-898.157 1103.83-898.167 1103.83L-899.131 1103.83C-915.096 1104.03-927.918 1113.64-927.781 1125.31L-927.781 1125.51C-927.781 1125.72-927.612 1125.89-927.402 1125.89Z" fill="#45606C" fill-rule="evenodd"/><path d="M-804.558 1096.94C-804.355 1097.89-803.424 1098.48-802.475 1098.28-802.035 1098.19-801.65 1097.93-801.396 1097.56-784.62 1073.89-746.909 1079.12-731.302 1100.5-730.707 1101.32-730.133 1101.3-729.583 1100.43-712.051 1071.87-654.848 1076.76-653.164 1115.14-652.064 1139.79-651.745 1164.47-652.201 1189.19-652.226 1190.4-652.845 1191-654.058 1191L-677.949 1191C-679.118 1191-679.703 1190.41-679.703 1189.22-679.658 1167.86-679.693 1146.5-679.806 1125.16-679.943 1098.24-726.592 1101.7-726.799 1128.79-726.981 1148.94-727.039 1169.09-726.971 1189.22-726.946 1190.41-727.531 1191-728.724 1191L-751.034 1191C-752.227 1191-752.822 1190.41-752.822 1189.22-752.66 1168.45-752.695 1147.71-752.925 1127.01-753.2 1099.17-797.889 1099.41-799.883 1127.73-801.327 1148.27-801.337 1168.68-799.918 1188.95-799.821 1189.98-800.588 1190.9-801.63 1190.99-801.688 1191-801.75 1191-801.808 1191L-826.834 1191C-827.88 1191-828.725 1190.16-828.725 1189.12L-829 1089.08C-829.004 1086.7-827.096 1084.76-824.741 1084.76-824.648 1084.76-824.555 1084.76-824.462 1084.77L-808.924 1085.69C-807.711 1085.76-806.965 1086.39-806.69 1087.57L-804.558 1096.94Z" fill="#45606C" fill-rule="evenodd"/><path d="M-1350.99 1115.45C-1350.96 1078.72-1313.99 1084.18-1290.51 1084.42-1288.54 1084.46-1286.96 1086.08-1287 1088.06-1287 1088.09-1287 1088.13-1287 1088.17L-1287.9 1105.76C-1287.97 1106.83-1288.54 1107.39-1289.62 1107.44L-1314.37 1108.26C-1320.38 1108.47-1323.39 1111.57-1323.39 1117.58L-1323.39 1189.28C-1323.39 1190.43-1323.96 1191-1325.11 1191L-1349.14 1191C-1350.28 1191-1350.86 1190.43-1350.86 1189.28-1350.97 1164.64-1351.02 1140.02-1350.99 1115.45Z" fill="#45606C" fill-rule="evenodd"/><path d="M-1081.14 1137.69C-1061.84 1148.46-1067.2 1179.14-1085.67 1187.92-1099.72 1194.58-1134.9 1191.08-1152.24 1191.08-1153.41 1191.08-1154 1190.5-1154 1189.33L-1154 1172.66C-1154 1170.06-1151.88 1167.95-1149.26 1167.95L-1101.76 1167.85C-1097.5 1167.84-1094.05 1164.42-1094.06 1160.19-1094.06 1157.19-1095.83 1154.47-1098.58 1153.23-1109.99 1148.04-1122.04 1142.84-1134.73 1137.62-1153.58 1129.87-1160.88 1104.61-1143.73 1091.44-1130.27 1081.11-1097.78 1084.4-1079.38 1084.85-1077.23 1084.9-1076.16 1085.99-1076.16 1088.14L-1076.16 1105.99C-1076.16 1107.02-1076.68 1107.54-1077.72 1107.56L-1121.31 1108.87C-1123.82 1108.95-1125.81 1111.03-1125.75 1113.52-1125.7 1115.3-1124.6 1116.88-1122.93 1117.55-1108.54 1123.43-1094.61 1130.14-1081.14 1137.69Z" fill="#45606C" fill-rule="evenodd"/><path d="M-1438.79 1240.41C-1428.48 1249.96-1426.31 1259.91-1432.28 1270.25-1439.13 1282.11-1457.83 1282.42-1469.61 1280.63-1471.26 1280.38-1472.8 1281.52-1473.05 1283.17-1473.07 1283.29-1473.08 1283.4-1473.08 1283.52L-1473.67 1305.11C-1473.71 1306.41-1474.38 1307.04-1475.67 1307L-1480.69 1306.86C-1482.25 1306.84-1483.02 1306.05-1483 1304.49L-1481.97 1240.68C-1481.92 1238.85-1480.99 1237.96-1479.18 1238L-1442.99 1238.69C-1441.38 1238.73-1439.98 1239.31-1438.79 1240.41ZM-1473.29 1248.9-1473.29 1270.08C-1473.29 1271.41-1472.21 1272.48-1470.88 1272.48L-1451.7 1272.48C-1444.76 1272.48-1439.13 1266.79-1439.13 1259.76L-1439.13 1259.21C-1439.13 1252.19-1444.76 1246.49-1451.7 1246.49L-1470.88 1246.49C-1472.21 1246.49-1473.29 1247.57-1473.29 1248.9Z" fill="#009BDB" fill-rule="evenodd"/><path d="M-1366.81 1281.11-1385.07 1281.11C-1386.39 1281.11-1386.96 1280.46-1386.77 1279.15L-1386.08 1274.65C-1385.87 1273.23-1385.04 1272.52-1383.58 1272.52L-1358.33 1272.52C-1357.04 1272.52-1356 1273.55-1356 1274.82-1356 1274.84-1356 1274.86-1356 1274.89L-1356.66 1295.99C-1356.71 1297.07-1357.27 1298.07-1358.19 1298.68-1369.3 1305.83-1380.9 1308.37-1393 1306.31-1426.03 1300.74-1430.1 1257.25-1403.81 1242.03-1391.82 1235.08-1362.16 1235.94-1358.12 1254.06-1357.6 1256.39-1359.09 1258.7-1361.45 1259.22-1363.45 1259.66-1365.49 1258.67-1366.36 1256.84-1377.14 1234.32-1409.41 1245.88-1410.7 1269.08-1412.89 1309.09-1360.45 1306.44-1365.29 1282.35-1365.45 1281.52-1365.96 1281.11-1366.81 1281.11Z" fill="#009BDB" fill-rule="evenodd"/><path d="M-1311.33 1293.76C-1311.24 1294.08-1310.9 1294.25-1310.58 1294.14-1310.41 1294.08-1310.26 1293.94-1310.19 1293.76L-1291.74 1240.75C-1290.43 1237.03-1286.38 1235.09-1282.7 1236.42-1279.88 1237.43-1278 1240.12-1278 1243.14L-1278 1304.74C-1278 1306.17-1278.71 1306.89-1280.13 1306.89L-1284.42 1306.89C-1285.87 1306.89-1286.59 1306.17-1286.59 1304.74L-1286.59 1253.11C-1286.62 1252.55-1287.09 1252.13-1287.64 1252.15-1288.03 1252.17-1288.37 1252.42-1288.51 1252.8L-1305.11 1303.69C-1306.15 1306.96-1309.62 1308.75-1312.85 1307.7-1314.71 1307.09-1316.17 1305.63-1316.79 1303.76L-1333.11 1255.68C-1333.22 1255.39-1333.53 1255.24-1333.82 1255.35-1334.03 1255.43-1334.17 1255.63-1334.18 1255.85L-1333.66 1304.49C-1333.66 1306.07-1334.43 1306.85-1335.96 1306.85L-1342.77 1306.85C-1344 1306.85-1345 1305.84-1345 1304.6L-1345 1239.78C-1345 1238.53-1344.02 1237.52-1342.8 1237.52L-1332.22 1237.42C-1330.82 1237.42-1329.59 1238.31-1329.16 1239.64L-1311.33 1293.76Z" fill="#009BDB" fill-rule="evenodd"/><path d="M-1231 1297.92C-1223.17 1296.89-1215.2 1297.58-1207.23 1297.06-1204.17 1296.85-1201.91 1298.1-1200.43 1300.81-1199.5 1302.51-1200.13 1304.64-1201.83 1305.57-1202.34 1305.85-1202.92 1306-1203.5 1306L-1244.1 1306C-1245.37 1306-1246 1305.37-1246 1304.11-1246 1292.49-1224.17 1276.78-1215.75 1268.8-1194.29 1248.45-1234.07 1232.67-1234.96 1255.91-1235 1257.14-1236.04 1258.11-1237.28 1258.06-1237.37 1258.06-1237.46 1258.05-1237.55 1258.04L-1242.9 1257.18C-1244.44 1256.93-1245.07 1256.02-1244.79 1254.46-1240 1226.48-1191.47 1234.11-1201.88 1263.27-1206.47 1276.06-1222.58 1286.23-1232.41 1294.83-1233.14 1295.49-1233.19 1296.62-1232.52 1297.35-1232.13 1297.77-1231.56 1297.99-1231 1297.92Z" fill="#009BDB" fill-rule="evenodd"/><path d="M-1147 1285.61C-1147 1296.87-1156.21 1306-1167.58 1306L-1170.43 1306C-1181.79 1306-1191 1296.87-1191 1285.61L-1191 1258.39C-1191 1247.13-1181.79 1238-1170.43 1238L-1167.58 1238C-1156.21 1238-1147 1247.13-1147 1258.39L-1147 1285.61ZM-1168.64 1299.8C-1160.93 1299.69-1154.85 1287.1-1155.06 1271.67-1155.28 1256.24-1161.71 1243.82-1169.43 1243.93-1177.14 1244.04-1183.22 1256.63-1183.01 1272.06-1182.79 1287.48-1176.36 1299.9-1168.64 1299.8Z" fill="#009BDB" fill-rule="evenodd"/><path d="M-1124.93 1297.47-1097.32 1297.47C-1094.94 1297.47-1093 1299.38-1093 1301.73L-1093 1303.75C-1093 1304.98-1094 1305.98-1095.25 1306L-1137.97 1306C-1139.08 1306.01-1139.99 1305.13-1140 1304.04-1140 1303.8-1139.96 1303.56-1139.88 1303.34-1133.82 1286.92-1114.93 1277.19-1106.28 1266.58-1091.72 1248.62-1123.93 1233.53-1128.53 1256.57-1128.75 1257.74-1129.89 1258.51-1131.08 1258.28-1131.08 1258.28-1131.08 1258.28-1131.09 1258.28L-1137.07 1257.19C-1138.39 1256.94-1138.84 1256.17-1138.42 1254.9-1131.92 1235.38-1107.94 1230.39-1096.39 1247.12-1083.8 1265.31-1112.75 1284.91-1125.8 1294.97-1126.41 1295.46-1126.5 1296.34-1126.02 1296.94-1125.75 1297.27-1125.35 1297.46-1124.93 1297.47Z" fill="#009BDB" fill-rule="evenodd"/><path d="M-1048.79 1269.04C-1042.95 1272.83-1040.02 1278-1040 1284.54-1039.86 1311.63-1079.7 1315.3-1084.92 1289.61-1085.24 1288.08-1084.62 1287.21-1083.08 1287.01L-1078.34 1286.39C-1077.05 1286.21-1075.83 1287.04-1075.51 1288.31-1069.96 1311.15-1039.45 1296.23-1052.88 1276.72-1053.63 1275.62-1054.64 1274.9-1055.92 1274.56L-1065.25 1272.12C-1067 1271.66-1068.04 1269.86-1067.58 1268.1-1067.24 1266.81-1066.16 1265.85-1064.84 1265.68-1034.65 1261.97-1067.23 1227.51-1075.1 1256.55-1075.58 1258.31-1076.68 1258.93-1078.41 1258.41L-1082.67 1257.07C-1084.01 1256.66-1084.45 1255.79-1084 1254.46-1073.13 1222.37-1028.45 1242.97-1049.03 1267.32-1049.58 1267.98-1049.5 1268.56-1048.79 1269.04Z" fill="#009BDB" fill-rule="evenodd"/></g></svg>